# xmcd
#
# Track frame offsets: 
#        150
#        19622
#        37552
#        57089
#        76050
#        96466
#        116963
#        133019
#        151703
#        169116
#        185159
#        203764
#        221855
#        241555
#
# Disc length: 3485 seconds
#
# Revision: 0
# Processed by: cddbd v1.5.2PL0 Copyright (c) Steve Scherf et al.
# Submitted via: ExactAudioCopyFreeDBPlugin 1.0
#
DISCID=b10d9b0e
DTITLE=Luc Leandry - Le roi du Zouk Chiré
DYEAR=2010
DGENRE=Country
TTITLE0=Unknown Artist - Dans tes yeux
TTITLE1=Unknown Artist - An ba koko la
TTITLE2=Unknown Artist - Sé pou zot
TTITLE3=Unknown Artist - O plis kolè
TTITLE4=Unknown Artist - Raché pwel
TTITLE5=Unknown Artist - Bémao
TTITLE6=Unknown Artist - Strings en diamant
TTITLE7=Unknown Artist - Sauce Arlette
TTITLE8=Unknown Artist - I salé I sikré
TTITLE9=Unknown Artist - Ponpé zouk la
TTITLE10=Unknown Artist - Tranzit lov
TTITLE11=Unknown Artist - A la dous
TTITLE12=Unknown Artist - Morné a lo
TTITLE13=Unknown Artist - Noght lov
EXTD=
EXTT0=
EXTT1=
EXTT2=
EXTT3=
EXTT4=
EXTT5=
EXTT6=
EXTT7=
EXTT8=
EXTT9=
EXTT10=
EXTT11=
EXTT12=
EXTT13=
PLAYORDER=
